<?xml version="1.0" encoding="UTF-8"?>
<svg id="Layer_1" xmlns="http://www.w3.org/2000/svg" version="1.1" viewBox="0 0 1125 214.7">
  <!-- Generator: Adobe Illustrator 30.6.0, SVG Export Plug-In . SVG Version: 2.1.4 Build 109)  -->
  <defs>
    <style>
      .st0 {
        fill: #fff;
      }

      .st1 {
        fill: #ff7614;
      }
    </style>
  </defs>
  <g>
    <path class="st0" d="M431.4,211.8h-37.9v-51.3h-133.1v51.3h-37.9v-104.4c0-15.2,2.6-29.3,7.9-42.1s12.5-23.8,21.9-33.1c9.3-9.2,20.3-16.4,33.1-21.6,12.7-5.1,26.6-7.7,41.7-7.7h85.4c2.6,0,5.1.5,7.4,1.5,2.3,1,4.4,2.3,6.1,4.1,1.7,1.7,3.1,3.8,4.1,6.1,1,2.3,1.5,4.8,1.5,7.4v189.8h-.2ZM260.4,122.7h133.2V40.8h-66.6c-1.2,0-3.6.2-7.4.5s-8.1,1.2-13,2.5c-4.9,1.4-10.1,3.4-15.5,6.3-5.4,2.8-10.4,6.7-15,11.7s-8.3,11.1-11.3,18.6c-3,7.4-4.4,16.4-4.4,27v15.3h0Z"/>
    <path class="st0" d="M654.2,73.1c0,8.6-1.1,16.4-3.2,23.2-2.1,6.8-5,12.8-8.7,18-3.6,5.2-7.8,9.6-12.6,13.3-4.8,3.7-9.7,6.7-14.9,9.1s-10.4,4.1-15.7,5.2-10.3,1.6-14.9,1.6l79.1,68.3h-58.6l-79-68.3h-27.2v-37.9h85.7c4.8-.4,9.1-1.4,13-3s7.3-3.8,10.2-6.5,5.1-6,6.6-9.8c1.6-3.8,2.3-8.2,2.3-13.2v-23.9c0-2.1-.3-3.8-.8-4.9s-1.2-1.9-2-2.5c-.8-.5-1.7-.8-2.6-.9-.9-.1-1.8-.1-2.6-.1h-125v171.1h-37.9V22c0-2.6.5-5.1,1.5-7.4s2.3-4.4,4-6.1,3.7-3.1,6-4.1,4.9-1.5,7.6-1.5h143.8c8.5,0,15.6,1.5,21.4,4.6,5.8,3.1,10.6,6.9,14.2,11.5,3.6,4.6,6.3,9.6,7.9,14.9,1.6,5.3,2.4,10.3,2.4,15v24.2Z"/>
    <path class="st0" d="M885.8,165.9c0,4.7-.8,9.7-2.4,15-1.6,5.3-4.2,10.3-7.9,14.9-3.6,4.6-8.4,8.4-14.2,11.4-5.8,3.1-13,4.6-21.4,4.6h-143.8c-2.7,0-5.2-.5-7.6-1.5-2.3-1-4.3-2.3-6-4s-3-3.7-4-6-1.5-4.9-1.5-7.6V22c0-2.6.5-5.1,1.5-7.4s2.3-4.4,4-6.1,3.7-3.1,6-4.1,4.9-1.5,7.6-1.5h126.8c4.7,0,9.7.8,15,2.5s10.3,4.3,14.9,7.9c4.6,3.6,8.5,8.4,11.5,14.2,3.1,5.8,4.6,13,4.6,21.4v7.1c0,6.7-1.1,13.9-3.4,21.6-2.2,7.7-5.8,15-10.8,21.9,4.3,2.6,8.3,5.8,12,9.5s7,8,9.8,12.8c2.8,4.9,5,10.3,6.7,16.5,1.7,6.1,2.5,12.9,2.5,20.3v7.3h.1ZM847.9,158.7c0-5-.8-9.4-2.3-13.3-1.6-3.9-3.7-7.3-6.6-10.1-2.8-2.8-6.2-5-10.2-6.5s-8.5-2.3-13.4-2.3h-85.4v-38.2h68.3c5,0,9.4-.8,13.4-2.3s7.4-3.7,10.2-6.5,5-6.2,6.5-10.1,2.3-8.4,2.3-13.3v-7.2c0-5.4-2.6-8.2-7.9-8.2h-108v133.2h125c.7,0,1.5,0,2.5-.1s1.8-.4,2.6-.9,1.5-1.3,2-2.5.9-2.8.9-4.8v-6.9h.1Z"/>
    <path class="st0" d="M1125,127.3c0,12.7-2.2,24.4-6.6,35.1s-10.4,19.9-18.2,27.7c-7.8,7.8-17,13.8-27.6,18.1s-22.2,6.5-34.8,6.5h-51.3c-12.5,0-24.1-2.2-34.8-6.5-10.7-4.3-19.9-10.4-27.7-18.1-7.8-7.8-13.9-17-18.3-27.7-4.4-10.7-6.6-22.4-6.6-35.1v-39.9c0-12.6,2.2-24.3,6.6-35,4.4-10.7,10.5-20,18.3-27.7s17-13.8,27.7-18.1c10.7-4.4,22.3-6.6,34.8-6.6h51.3c12.5,0,24.1,2.2,34.8,6.6,10.6,4.4,19.8,10.4,27.6,18.1,7.8,7.7,13.8,17,18.2,27.7,4.4,10.7,6.6,22.4,6.6,35v39.9ZM1087.1,87.4c0-7.5-1.2-14.3-3.6-20.3-2.4-6.1-5.7-11.3-10.1-15.6s-9.5-7.7-15.6-10.1-12.8-3.6-20-3.6h-51.3c-7.4,0-14.1,1.2-20.2,3.6s-11.3,5.7-15.7,10.1-7.7,9.5-10.1,15.6-3.6,12.8-3.6,20.3v39.9c0,7.5,1.2,14.3,3.6,20.3s5.8,11.3,10.1,15.6c4.4,4.3,9.6,7.7,15.7,10.1s12.8,3.6,20.2,3.6h51c7.4,0,14.1-1.2,20.2-3.6s11.3-5.7,15.7-10.1c4.4-4.3,7.7-9.5,10.1-15.6s3.6-12.8,3.6-20.3v-39.9h0Z"/>
    <g>
      <path class="st0" d="M171,126.4h0c-.1,0,0,0,0,0Z"/>
      <rect class="st0" x="171" y="126.5" width=".1" height="2"/>
      <path class="st0" d="M209,103.9v24.5h0v64.3c0,2.7-.5,5.2-1.5,7.6-1,2.3-2.3,4.3-4,6s-3.7,3-6,4-4.8,1.5-7.6,1.5H53.2c-3.5,0-7.3-.4-11.3-1.2s-8-2.1-12-3.9c-3.9-1.8-7.7-4-11.3-6.8-3.6-2.8-6.8-6.1-9.5-10-2.8-3.9-5-8.5-6.6-13.7-1.7-5.2-2.5-11.1-2.5-17.6V56.1c0-3.5.4-7.3,1.2-11.3.8-4,2.1-8,3.9-12,1.8-3.9,4-7.7,6.9-11.3,2.8-3.6,6.2-6.8,10.1-9.5,3.9-2.8,8.5-5,13.6-6.6s11-2.5,17.5-2.5h154v37.9H53.2c-5,0-8.7,1.3-11.4,3.9-2.6,2.6-3.9,6.5-3.9,11.7v102.3c0,4.9,1.3,8.6,4,11.3,2.7,2.7,6.4,4,11.3,4h117.9v-47.5h-.1v-57.2h18.9c2.7,0,5.2.5,7.6,1.5,2.3,1,4.4,2.4,6,4.2,1.7,1.8,3,3.8,4,6,1,2.3,1.5,4.7,1.5,7.4v15.5h0Z"/>
    </g>
  </g>
  <path class="st0" d="M107,139.9l-54.5-61.2c-.9,2.1-1.5,4.4-1.5,6.8v51.8c0,9.2,7.4,16.6,16.6,16.6h77.8c9.2,0,16.6-7.4,16.6-16.6v-51.8c0-2.1-.4-4.2-1.2-6l-53.8,60.4Z"/>
  <path class="st1" d="M67.6,68.9c-4,0-7.6,1.4-10.5,3.7l49.7,55.8,49.4-55.5c-2.9-2.5-6.7-4-10.8-4h-77.8Z"/>
</svg>